<mxfile host="app.diagrams.net" agent="Mozilla/5.0 (Windows NT 10.0; Win64; x64) AppleWebKit/537.36 (KHTML, like Gecko) Chrome/133.0.0.0 Safari/537.36 Edg/133.0.0.0" version="26.0.16">
  <diagram name="Page-1" id="h2v3XtX9sGFH9JF0lEP0">
    <mxGraphModel dx="1120" dy="561" grid="1" gridSize="10" guides="1" tooltips="1" connect="1" arrows="1" fold="1" page="1" pageScale="1" pageWidth="1400" pageHeight="850" math="0" shadow="0">
      <root>
        <mxCell id="0" />
        <mxCell id="1" parent="0" />
        <mxCell id="mqjJcqwNZK51eRfGcI_n-2" value="VPC&amp;nbsp; 192.128.0.1/32" style="sketch=0;outlineConnect=0;gradientColor=none;html=1;whiteSpace=wrap;fontSize=12;fontStyle=0;shape=mxgraph.aws4.group;grIcon=mxgraph.aws4.group_vpc;strokeColor=#879196;fillColor=none;verticalAlign=top;align=left;spacingLeft=30;fontColor=#879196;dashed=0;" vertex="1" parent="1">
          <mxGeometry x="110" y="85" width="510" height="340" as="geometry" />
        </mxCell>
        <mxCell id="mqjJcqwNZK51eRfGcI_n-3" value="" style="rounded=1;whiteSpace=wrap;html=1;" vertex="1" parent="1">
          <mxGeometry x="150" y="140" width="440" height="260" as="geometry" />
        </mxCell>
        <mxCell id="mqjJcqwNZK51eRfGcI_n-4" value="Cluster t3.small" style="text;html=1;align=center;verticalAlign=middle;whiteSpace=wrap;rounded=0;" vertex="1" parent="1">
          <mxGeometry x="170" y="150" width="60" height="30" as="geometry" />
        </mxCell>
        <mxCell id="mqjJcqwNZK51eRfGcI_n-5" value="pod 1&lt;div&gt;&lt;br&gt;&lt;/div&gt;" style="ellipse;whiteSpace=wrap;html=1;" vertex="1" parent="1">
          <mxGeometry x="170" y="210" width="170" height="150" as="geometry" />
        </mxCell>
        <mxCell id="mqjJcqwNZK51eRfGcI_n-6" value="Trainee 1" style="rounded=1;whiteSpace=wrap;html=1;" vertex="1" parent="1">
          <mxGeometry x="190" y="290" width="80" height="30" as="geometry" />
        </mxCell>
        <mxCell id="mqjJcqwNZK51eRfGcI_n-7" value="Trainee 2" style="rounded=1;whiteSpace=wrap;html=1;" vertex="1" parent="1">
          <mxGeometry x="215" y="320" width="80" height="30" as="geometry" />
        </mxCell>
        <mxCell id="mqjJcqwNZK51eRfGcI_n-8" value="pod 2&lt;div&gt;&lt;br&gt;&lt;/div&gt;" style="ellipse;whiteSpace=wrap;html=1;" vertex="1" parent="1">
          <mxGeometry x="370" y="210" width="170" height="150" as="geometry" />
        </mxCell>
        <mxCell id="mqjJcqwNZK51eRfGcI_n-9" value="Trainee 3" style="rounded=1;whiteSpace=wrap;html=1;" vertex="1" parent="1">
          <mxGeometry x="390" y="290" width="80" height="30" as="geometry" />
        </mxCell>
        <mxCell id="mqjJcqwNZK51eRfGcI_n-10" value="Trainee 4" style="rounded=1;whiteSpace=wrap;html=1;" vertex="1" parent="1">
          <mxGeometry x="415" y="320" width="80" height="30" as="geometry" />
        </mxCell>
        <mxCell id="mqjJcqwNZK51eRfGcI_n-11" value="" style="endArrow=classic;startArrow=classic;html=1;rounded=0;entryX=0.029;entryY=0.633;entryDx=0;entryDy=0;entryPerimeter=0;" edge="1" parent="1" source="mqjJcqwNZK51eRfGcI_n-5" target="mqjJcqwNZK51eRfGcI_n-8">
          <mxGeometry width="50" height="50" relative="1" as="geometry">
            <mxPoint x="530" y="340" as="sourcePoint" />
            <mxPoint x="580" y="290" as="targetPoint" />
          </mxGeometry>
        </mxCell>
        <mxCell id="mqjJcqwNZK51eRfGcI_n-12" value="Egress" style="text;html=1;align=center;verticalAlign=middle;whiteSpace=wrap;rounded=0;" vertex="1" parent="1">
          <mxGeometry x="320" y="310" width="60" height="30" as="geometry" />
        </mxCell>
        <mxCell id="mqjJcqwNZK51eRfGcI_n-13" value="Lock Elastic IP" style="text;html=1;align=center;verticalAlign=middle;whiteSpace=wrap;rounded=0;" vertex="1" parent="1">
          <mxGeometry x="520" y="150" width="60" height="30" as="geometry" />
        </mxCell>
      </root>
    </mxGraphModel>
  </diagram>
</mxfile>
